<svg width="728" height="174" viewBox="0 0 728 174" fill="none" xmlns="http://www.w3.org/2000/svg">
<path d="M580.696 79.9521C582.862 82.7133 585.564 86.9413 587.578 89.9014C592.262 96.7656 596.869 103.682 601.397 110.649C610.557 92.0281 620.295 72.8734 629.057 54.1426L649.705 54.123C650.7 57.5868 651.863 61.1935 652.925 64.6523C657.499 80.1701 662.992 96.072 667.757 111.604L648.968 111.563C647.927 107.51 646.823 103.473 645.655 99.4531L624.722 99.4629L619.202 111.591L581.105 111.557C575.011 102.466 567.816 91.485 562.384 82.0361C562.169 89.277 560.066 103.847 559.198 111.573L541.224 111.565C541.446 109.189 541.739 106.731 542.032 104.361C544.11 87.6239 545.443 70.6802 547.799 53.9863L565.47 53.9834C564.249 62.4887 563.301 71.4853 562.274 80.0488C568.676 71.6106 577.402 62.4243 584.329 53.999L605.164 53.9805L580.696 79.9521ZM638.357 65.8359C635.222 72.749 631.85 80.6155 628.531 87.3623L634.612 87.3652L643.977 87.3516C643.394 84.7628 639.377 66.6084 638.357 65.8359Z" fill="#E95E03"/>
<path d="M121.954 31.6028C143.529 26.9997 176.351 31.1121 194.207 43.1311C239.547 73.6492 212.018 121.75 165.942 129.273C156.643 130.791 150.061 131.473 140.485 131.931C140.144 131.995 139.594 132.052 138.886 132.101C138.178 132.15 137.312 132.192 136.341 132.227C135.855 132.244 135.343 132.26 134.811 132.274C133.746 132.301 132.602 132.321 131.43 132.333C126.155 132.391 120.316 132.3 118.645 132.061C119.595 131.502 121.328 131.431 122.484 131.307C142.44 128.901 162.778 121.254 175.813 105.138C192.353 84.6902 185.717 61.6074 165.967 46.2151C153.848 36.77 137.336 32.4598 121.954 31.6028Z" fill="black"/>
<path d="M334.241 53.0007C342.172 52.4349 349.955 53.5075 356.194 58.9158C368.394 69.5021 368.465 90.8418 358.074 102.631C352.021 109.498 343.338 112.222 334.46 112.801C305.999 115.166 293.483 86.5522 308.944 64.4939C313.399 58.1376 325.607 53.9356 333.149 53.1003C333.512 53.06 333.876 53.027 334.241 53.0007ZM347.752 78.5124C347.456 70.3994 342.353 65.4978 334.213 66.0173C329.547 67.1494 326.507 69.1523 324.053 73.3581C318.201 83.3895 318.606 100.107 334.105 99.5476C344.756 97.6536 348.098 88.0507 347.752 78.5124Z" fill="#E95E03"/>
<path d="M262.573 53.9036C267.346 53.8888 272.004 53.66 276.686 54.3704C293.161 56.8709 300.408 70.6123 297.443 86.1917C295.801 94.8197 292.364 100.677 285.162 105.802C274.384 112.119 266.078 111.609 254.277 111.6L236.413 111.568C238.776 92.4467 240.553 73.0308 243.041 53.9856L262.573 53.9036ZM276.179 69.5813C272.812 65.5544 264.164 66.2566 259.077 66.3264L255.588 98.8987C261.664 98.938 268.304 99.7528 273.17 95.886C279.818 89.0302 283.228 78.0121 276.179 69.5813Z" fill="#E95E03"/>
<path d="M63.6605 41.1177C85.6416 39.1447 119.306 46.357 125.862 70.7173C132.731 96.2346 112.979 113.377 90.3813 119.767C83.0255 122.652 68.9385 124.036 60.9731 124.553C71.5708 117.602 80.8073 111.412 87.4196 100.114C102.485 74.3699 86.7 54.2873 63.6605 41.1177Z" fill="#E95E03"/>
<path d="M395.42 53.9517C399.934 53.9506 404.065 53.7444 408.699 54.3843C421.39 56.1376 432.221 64.6941 425.213 78.5171C422.712 83.4505 417.234 87.0918 411.919 88.6841C417.04 96.2903 422.423 103.854 427.361 111.562L415.055 111.565L407.503 111.557L396.21 91.5288C394.207 91.4387 391.945 91.499 389.917 91.5103C389.473 97.8791 388.457 105.172 387.695 111.568L369.749 111.539C371.908 92.5849 374.437 72.9281 376.218 53.979L395.42 53.9517ZM408.798 73.1069C409.93 64.8964 398.076 66.1117 392.905 66.1577C392.426 70.0758 391.61 75.463 391.374 79.2896C396.471 79.3229 401.165 79.7567 405.874 77.5884C407.535 76.3097 408.498 75.2601 408.798 73.1069Z" fill="#E95E03"/>
<path d="M101.689 38C104.29 37.6043 109.789 38.0063 112.645 38.2705C128.023 39.7512 143.416 42.484 156.443 51.2731C173.158 62.5512 179.402 83.0306 167.104 100.02C157.769 112.917 142.996 119.293 127.667 121.974C119.273 123.261 112.001 123.603 103.568 123.628C109.738 121.351 115.147 119.327 121.059 116.343C139.4 107.087 156.858 87.9141 145.468 66.6332C136.377 49.6464 119.112 43.388 101.689 38Z" fill="black"/>
<path d="M492.455 54.009L539.383 54.0094C539.182 57.5676 538.462 62.5827 538.029 66.2234C528.177 66.182 518.326 66.1992 508.478 66.275C508.073 69.5526 507.72 72.8361 507.42 76.1249L533.422 76.1368C533.147 79.7923 532.442 84.4927 531.99 88.2085C525.588 88.2053 513.346 88.093 506.489 88.3484C506.284 88.5421 506.115 88.7069 505.971 88.8434C505.59 92.3206 505.233 95.801 504.909 99.2841L535.997 99.2669L534.547 111.573L485.876 111.562C488.264 92.8079 490.374 72.8652 492.455 54.009Z" fill="#E95E03"/>
<path d="M455.49 53.0883C463.215 51.7454 473.207 53.9485 480.388 56.8924L478.268 68.3757C475.852 67.4829 451.61 59.1488 451.053 70.3887C450.803 75.3785 467.049 78.3962 470.731 80.2383C472.353 81.049 475.951 82.4287 477.461 84.0329C484.265 89.2442 483.58 98.2241 478.307 104.386C472.819 110.801 463.119 112.335 454.989 112.911C445.163 113.018 439.579 111.191 430.61 108.016C431.601 103.901 432.765 99.6515 433.834 95.5411C441.033 98.5903 448.612 101.098 456.57 100.572C458.936 100.415 464.805 98.4799 463.574 95.5348C461.317 90.144 450.051 88.5903 445.12 85.9968C442.775 84.7633 440.553 84.1105 438.461 82.3912C431.213 77.3943 430.92 68.6638 436.102 61.8543C440.694 55.8193 448.189 54.0551 455.49 53.0883Z" fill="#E95E03"/>
</svg>
