<?xml version="1.0" encoding="UTF-8"?>
<svg id="Layer_2" data-name="Layer 2" xmlns="http://www.w3.org/2000/svg" viewBox="0 0 909 692.5">
  <defs>
    <style>
      .cls-1 {
        fill: #444;
      }
    </style>
  </defs>
  <g id="Layer_1-2" data-name="Layer 1">
    <g>
      <polygon class="cls-1" points="29.8 205.9 24.8 199.6 26.1 207.1 25.7 224.2 27 229.7 26.2 232.3 27 233.6 26 238.3 24.4 261.3 18 283.5 11.6 299.6 0 319.8 10 322.4 9.9 317.5 17.5 307.3 19.5 301.8 20.5 296.2 23 290.1 25.8 285 28.1 282.1 28.1 280.4 25.1 276.7 26 272.5 28.4 268 30.2 263.5 30.2 253.2 30.5 250 31.9 245.4 32.3 242 32 218.1 29.8 205.9"/>
      <path class="cls-1" d="m907.6,317.8l-3.5-2.7-25.7-4.6-9.3,2.6-2.7-.2-9.2-3.4-2.4-1.7-.7-2.9,1.5-5,3.7-6.9,1.1-2.6,2-10.1,1.3-3.1,5.5-5.5.5-3.2-2.9-5.7.7-6.6,3-5,3.8-4.4,3-4.8,1.5-6,.4-7.2-.6-7.4-1.5-6.5-8.8-.7-8.7-2.4-21.5-10.4-9.7-7.4-8.1-14.8-3.6-8.4-3.9-6.1-15.3-13.4-9.6-10.8-8.7-5.8-13.9-9.3-11.8-13.3-.02-.02c-40.11-14.98-83.5-23.17-128.77-23.17-183.09,0-335.49,133.96-364.31,309.03l.1.46,2,6,1.8,3.3,2.6,1.3h8.7l1.4.5,1,1.1,1.1,1.8,1.5,1.7,2.1.8-1.7,3.6,1.2,2.1,9.3,4.4,1.9,2.2,1.2,3.4,2.4,10.9.6,4.9-.4,4.8-2,4.7-2.4,2.5-4.8,3.6-2.1,3.6-1.2,1.4-2.8,1.5-1.6,1.4-1.3.3-.5.5-.3,1.3.3,1.3.4,1.2-.1,1-3.4,5.1-.6,1.8-.1,2.8,1,6.1.2,2.9-.7,4.8-3.4,12.7-1.1,20.7.9,10.4,4.1,9.2,9.3,16.6,2.9-2.4,4-7.3.2-.3,3.8-1.9,3.3.5,9.3,4.8,1.7.2,3.5-.7,1.6.3,1.6,1.7.9,2.1.7,2.1,1,1.7,1.7,1.2,5.3.6,1,1.5-.6,2.5-.9,3v2.8l2.8,3.9h3.5l3.7-1.6,3.2-.7,2.8,1.4,9.6,8,5.9,3.7,12.4,4.7,3.1,2.7,2.9,2.4,1.5,2.3,2.8,5.4,1.4,2.1,1.6,1.1,3.3.9,1.5.8,2.5,3.8,2.2,5.3,1.7,5.9,1.1,5.6,2.3,12.3.1,6-2.4,4-1.8,1.6-.9,1-.7,1.2-.1,2.8.7,2.4,1.2,1.9,1.6,1.4,1,1.2.4,1.3-.1,1.4-.6,1.5,5.3,1.4,13.9,8.5,2.7.9,2.4-.2,7.6-3.3,9.7-1.3,2.6-2,2.4-1,1.1.2,2.8,1.7,1.3.4,1.2-.2,11.8-6.8,2.3-.5,2.5,1,4.5,3,2.6.6,9.9-.1,4.5-1.3,9.6-5.2,5.1-.9,4.9,1.7,4.3,5.3,2.7,7.5,1.6,2.5,3,.6,5.2-.2,4.9,1.5h5.6l5.6-2.8,17.7-16,7.8-4.5,9.9-2,.08-.06c-38.46-9.02-73.75-28.57-102.38-57.2-40.56-40.56-62.89-94.47-62.89-151.82s22.33-111.27,62.89-151.82c40.55-40.55,94.46-62.88,151.81-62.88s111.27,22.33,151.82,62.88c18.82,18.83,33.73,40.54,44.29,64.14l-.02-1.14.4-3.1,4.9-7.7,6.9-1.2,17.2,4.4h1.3l1.5-.5,1-1,.9-1.6,1.3-1.4,2.2-.2,16.3,7.3,3.4-.6,2.4-3.9,1.7-7.9,1-7.5,1.2-2.9,2.4-3.4,4.4-4.4,2.4-1.4,6-1.6,4-1.1,3.7-2.9,1.7-4.3-1.4-4.6Z"/>
      <path class="cls-1" d="m251.56,84.96c21.6-21.6,44.78-41.13,69.41-58.49l-2.77-7.07-3.8-8-5-2.8-5.5,1-4.6,3.2-5.7,3.9-21.8,9.1-2.4.4-2.6-1.2-6.9-7.2-4.1-2.2-.4-.2-9.9-2.3-45.9,1.5-3.1-1.2-5.7-4.3-2.9-1.5-7-.5-17.2,8.1-2.7,1.3-43.5,20.5-13.7.7-5.7,2.9-21.6,16.7-2.4.8-1.81.1c-19.97,27.51-37.94,56.56-53.69,86.94l-.1.76v12.2l2.5,23.2,1.4,5.4.7,6.8,1,1.8,1.4.9,1.5,1.7,6.4,11.2,1,2.8.5,5.1,1.1,4.8,5.8,15.6.5,2.8-.1,2-.2,2.2-.2,3.3.7,2.6,1.5,2.2,1.4,1.7.7.9.2,2.1,1.9,8.2,1.9,11-.1,6.6-2.4,3-1.3,2.1-5.9,13.6-.4.3v.6l.8,2,9-8.6,1.6.3-.1,6.1.5,2.9,1.2,1.2,1,1.2,1.3,2.8,1.1,3.2.3,2.2-.9,2.7-1.2.2-1.1-.4-1,1.1v2l.7,6.2-.2,1.4,12.7-10.7,3.9-.6,4.8,4.8,9.6,16.6,5.6,4.6,15.6.5,3.66,1.8c6.9-31.88,16.78-63.07,29.6-93.4,26.58-62.84,64.63-119.27,113.1-167.74Z"/>
      <path class="cls-1" d="m20.7,136.29c14.43-27.07,30.63-53.07,48.56-77.91l-2.16.12-4.8,2.4-5.7,4.9-5.5,6-3.9,6.1-2.7,9-1.1,7.6-2.3,5.3-6.2,1.7-9.1.1-5.9,1.5.8,9.7v23.49Z"/>
      <path class="cls-1" d="m362.23,195.63c34.09-34.09,73.79-60.86,117.99-79.55,45.77-19.36,94.38-29.17,144.49-29.17,43.41,0,85.69,7.36,125.96,21.91l-1.67-1.92-8.9-6.2-1.9-1.9-1.3-2.9-2.9-9.3-1.1-2.4-1.9-.9-9.3.8-2.6-.6-7.8-3.7-10.5,1.9-16.3-2.8-37.1-6.5-5.6-4.1-4.5-8.4-2.8-8.9-1.5-2.7-5.1-5.8-1.6-2.8-1.7-5.2-4-16.9-4-11.8-2.8-4.7-3.3-1.1-2.1,2-.6,3-.2,3.1-1,2.5-1.3.2-3.4-1.3-1.5.1-14,6.2-5.7,2.5-6.1,4.8-12.5,17.2-3,3-8.9,5.2-5.3,2.4-5-1.4-9.9-7.3-5-1.9-4.7.8-18.7,9.8-4.1.8h-.3l-4.6-.9-5.2-2.9-14.5-11.5-17.1-5.5-2-.6-5.1-.2-10.7,2.5-4.8-.8-.2-.9.2-1.8-.2-2-1.3-2-1.3-.4-4.2.7-10.8-.6-5,1.5-9.3,5.6-5.6-.4-16-6.9-10.4-4.4-3.4-.7-18,4.2-2.8,1.8,1.3,2.9-7.7,8.4-7.8,1.9-7.1-5.5-1.78-4.55c-105.75,74.79-182.79,187.62-211.03,318.4l.71.35,10.9,8.6,2.7,3.5,2.7,2.3,10.7,2.3,5.2,4.6,3,2,5.5,1.4,3.8,2.5,1.5.6,1.3-.6,4.1-3.1,4-.4,1.8,1.4.5,3v4.4l1.4,4.5,3.5,2.9,4.1,1.3,3.6-.3,2.9-2.2,1.7-2.4,2-2.1,16.8-4.4,2.9.4,25.7,3.1,16.2-4.8,3.8,2.1.9,1.1,1.5,1.7,1.7,5.4,1.35,6.34c4.81-27.03,12.63-53.42,23.42-78.91,18.7-44.21,45.46-83.91,79.56-118Z"/>
      <path class="cls-1" d="m624.71,245.42c-117.28,0-212.7,95.41-212.7,212.7,0,101.03,70.81,185.84,165.41,207.4l1.48-1.12.6-.1.6.1.5.4.6,1.54c6.26,1.31,12.63,2.34,19.08,3.08l.22-.12,2-4.5v-.1l.3-7.2-1.4-5-2-4.5-1.9-5.7-.7-4,.3-.9,1-.1,1.3-1.7,2.9-1.9.1-1-.2-1.7v-2l.7-1.7,4.5-2.7.8-.5,7.1-.8,7.2,1,12.2,4.8,6.9-1.2,6.7-4.4,6.4-7.1,2.5-5.5,3.2-12.4,2-3.5,2.7-.5,9.9,3.5,12.7-.7,3.7-2.4,6.2-9.2,3.9-1.9,2,.5,1,1,.8,1.5,10.9,14.9-1.3,1-3.7-.3-3.1,1.9-.4,2.6,3.7,2,.9,2.3-1.1,1.9-4.4,1.6-1.2,1.8,1.2,4.7,3.5,3.4,4.2,2.1,13.7,2.2,3.4-.1,1.6-.9,2.4-3.4,1.7-.8,5.8.8,1.8-.3,3.6-2.7,1.2-4.1.2-12.1.5-1.2,1.8-2.5.4-1.2-.4-1.6-.8-.6-.8-.3-.7-.8-1-3-1.2-2.4-1.4-1.9-1.5-1.7-.7-.1-1.7.6-.7-.2-.6-1-1.6-4.7-.5-2.6-.9-2.1-2.1-1.3-2.3.6-9.3,4.9-6.7.5-3.3-1.3-2.2-3.4.3-6.7,2.9-5.7,7.1-8.6,2.7-5.8.6-5.1-.1-5.6.7-7,1.7-5.4,2.3-3.2,9.5-5.6,2.9-3,2.2-4.2.8-5.3-.9-5.2-3.8-9.5-1-5.2.1-3.4.7-2.7.8-2.4.6-2.9.3-2.7-.6-13.7.5-3.6,1.7-2.4,3.3-3,1.6-.8,1-.1.8-.5.7-2.2-.1-2.2-1.3-5.4-.3-2.4,1.6-5.1,3.1-3.2,3.6-2.8,3.2-3.8,1-2.7.3-2.5.6-2,1.8-1.6,5.8-2.5,2.8.1,5.7,1.3,2.8.1,18.8-3.9,5.6-3.2,2.3-2.6,2.6-3.9,2.7-4.2,5.7-12.5.8-2.3.2-3.2v-.06c-32.21-76.6-108.02-130.52-196.19-130.52Zm0,270.89c-32.08,0-58.19-26.1-58.19-58.19s26.11-58.19,58.19-58.19,58.19,26.1,58.19,58.19-26.1,58.19-58.19,58.19Z"/>
      <path class="cls-1" d="m582.6,669.9l2.3,2.3,2.8.2,8.86-1.4c-4.86-.63-9.68-1.42-14.46-2.38l.5,1.28Z"/>
      <circle class="cls-1" cx="624.71" cy="458.12" r="56.19"/>
    </g>
  </g>
</svg>